<svg xmlns:inkscape="http://www.inkscape.org/namespaces/inkscape" xmlns:sodipodi="http://sodipodi.sourceforge.net/DTD/sodipodi-0.dtd" xmlns="http://www.w3.org/2000/svg" xmlns:svg="http://www.w3.org/2000/svg" viewBox="0 0 25 25" version="1.1" x="0px" y="0px" fill="white"><g transform="translate(-113.26899,-144.28201)"><path style="color:#000000;" d="m 125.83789,149.57422 a 0.39687499,0.39687499 0 0 0 -0.39648,0.39648 v 2.52344 a 0.39687499,0.39687499 0 0 0 0.39648,0.39648 0.39687499,0.39687499 0 0 0 0.39649,-0.39648 v -2.52344 a 0.39687499,0.39687499 0 0 0 -0.39649,-0.39648 z" fill="" stroke-linecap="round"/><path style="vector-effect:none;paint-order:stroke fill markers;" d="m 128.8794,156.84938 a 3.0420659,3.0420659 0 0 1 -3.04207,3.04207 3.0420659,3.0420659 0 0 1 -3.04206,-3.04207 3.0420659,3.0420659 0 0 1 3.04206,-3.04207 3.0420659,3.0420659 0 0 1 3.04207,3.04207 z" stroke-width="0.79375" stroke-linecap="round" stop-color="#000000"/><path style="color:#000000;" d="m 130.41992,151.70508 -1.7832,1.78515 a 0.39687499,0.39687499 0 0 0 0,0.56055 0.39687499,0.39687499 0 0 0 0.56055,0 l 1.78515,-1.78516 a 0.39687499,0.39687499 0 0 0 0,-0.56054 0.39687499,0.39687499 0 0 0 -0.5625,0 z" fill="" stroke-linecap="round"/><path style="color:#000000;" d="m 130.19141,156.45312 a 0.39687499,0.39687499 0 0 0 -0.39649,0.39649 0.39687499,0.39687499 0 0 0 0.39649,0.39648 h 2.52539 a 0.39687499,0.39687499 0 0 0 0.39648,-0.39648 0.39687499,0.39687499 0 0 0 -0.39648,-0.39649 z" fill="" stroke-linecap="round"/><path style="color:#000000;" d="m 128.63672,159.64844 a 0.39687499,0.39687499 0 0 0 0,0.56054 l 1.7832,1.78516 a 0.39687499,0.39687499 0 0 0 0.5625,0 0.39687499,0.39687499 0 0 0 0,-0.56055 l -1.78515,-1.78515 a 0.39687499,0.39687499 0 0 0 -0.56055,0 z" fill="" stroke-linecap="round"/><path style="color:#000000;" d="m 125.83789,160.80664 a 0.39687499,0.39687499 0 0 0 -0.39648,0.39844 v 2.52344 a 0.39687499,0.39687499 0 0 0 0.39648,0.39648 0.39687499,0.39687499 0 0 0 0.39649,-0.39648 v -2.52344 a 0.39687499,0.39687499 0 0 0 -0.39649,-0.39844 z" fill="" stroke-linecap="round"/><path style="color:#000000;" d="m 122.75781,159.53125 a 0.39687499,0.39687499 0 0 0 -0.28125,0.11719 l -1.7832,1.78515 a 0.39687499,0.39687499 0 0 0 0,0.56055 0.39687499,0.39687499 0 0 0 0.56055,0 l 1.78515,-1.78516 a 0.39687499,0.39687499 0 0 0 0,-0.56054 0.39687499,0.39687499 0 0 0 -0.28125,-0.11719 z" fill="" stroke-linecap="round"/><path style="color:#000000;" d="m 118.95898,156.45312 a 0.39687499,0.39687499 0 0 0 -0.39648,0.39649 0.39687499,0.39687499 0 0 0 0.39648,0.39648 h 2.52344 a 0.39687499,0.39687499 0 0 0 0.39649,-0.39648 0.39687499,0.39687499 0 0 0 -0.39649,-0.39649 z" fill="" stroke-linecap="round"/><path style="color:#000000;" d="m 120.97266,151.58789 a 0.39687499,0.39687499 0 0 0 -0.2793,0.11719 0.39687499,0.39687499 0 0 0 0,0.56054 l 1.7832,1.78516 a 0.39687499,0.39687499 0 0 0 0.5625,0 0.39687499,0.39687499 0 0 0 0,-0.56055 l -1.78515,-1.78515 a 0.39687499,0.39687499 0 0 0 -0.28125,-0.11719 z" fill="" stroke-linecap="round"/></g></svg>